<?xml version="1.0" standalone="no"?>
<!DOCTYPE svg PUBLIC "-//W3C//DTD SVG 20010904//EN" "http://www.w3.org/TR/2001/REC-SVG-20010904/DTD/svg10.dtd">
<!-- Created using Karbon, part of Calligra: http://www.calligra.org/karbon -->
<svg xmlns="http://www.w3.org/2000/svg" xmlns:xlink="http://www.w3.org/1999/xlink" width="2048pt" height="1280pt">
<defs/>
<g id="layer1">
  <rect id="rect5456" transform="translate(5.65685, -0.889745)" fill="#8799a5" stroke="#ff0000" stroke-opacity="0.00000000000" stroke-width="1.41700006000" stroke-linecap="butt" stroke-linejoin="miter" stroke-miterlimit="4.00000000000" width="2040.99296000000pt" height="1278.44904000000pt"/>
 </g><g id="layer0">
  <path id="path3093" transform="translate(797.211, 313.333)" fill="#deeed6" stroke="#fff000" stroke-opacity="0.00000000000" stroke-width="1.41732529000" stroke-linecap="butt" stroke-linejoin="miter" stroke-miterlimit="2.00000000000" d="M458.773 964.868C456.298 964.664 448.198 964.003 440.773 963.401C344.375 955.581 250.73 917.152 174.273 854.038C158.518 841.033 124.778 807.227 111.673 791.318C21.6746 682.056 -16.1135 543.292 6.3207 404.444C19.866 320.611 54.9186 243.381 110.485 174.944C122.732 159.86 157.605 124.752 172.773 112.236C249.586 48.8536 335.658 12.569 434.773 1.78714C447.164 0.439257 459.243 -0.00580301 483.273 5.69926e-05C515.57 0.00805699 525.461 0.657327 552.188 4.52426C728.136 29.9815 876.057 150.231 936.701 317.108C955.149 367.871 963.969 414.966 965.418 470.444C968.897 603.58 918.521 729.782 824.303 823.969C744.148 904.096 640.725 952.58 526.773 963.446C515.172 964.552 467.108 965.558 458.773 964.868ZM258.919 836.968C319.19 830.445 328.655 829.251 330.439 827.947C331.9 826.879 331.033 816.884 320.895 717.858C314.762 657.955 309.638 606.024 309.509 602.456L309.273 595.967L322.773 594.202C330.198 593.231 353.462 590.641 374.471 588.445C465.988 578.881 501.911 571.357 532.802 555.283C549.496 546.596 561.582 537.643 575.777 523.448C590.696 508.529 599.477 496.487 608.227 478.944C622.893 449.543 628.639 421.437 627.447 384.944C626.149 345.242 619.462 314.977 605.683 286.444C597.704 269.923 588.94 256.96 577.768 245.155C550.358 216.193 522.089 200.805 484.273 194.264C473.369 192.378 469.808 192.245 445.273 192.811C420.945 193.371 381.642 195.76 377.784 196.913C376.953 197.161 365.023 198.3 351.273 199.445C330.843 201.145 241.466 210.529 163.967 219.111C155.549 220.043 147.915 221.351 147.003 222.018C145.472 223.138 146.016 229.769 154.066 308.088C158.862 354.759 172.94 492.844 185.35 614.944C197.76 737.044 208.323 837.957 208.822 839.194C210.054 842.245 210.243 842.236 258.919 836.968ZM297.272 486.194C297.031 485.507 294.781 464.694 292.272 439.944C289.762 415.194 286.166 380.094 284.28 361.944C282.394 343.794 280.721 325.801 280.562 321.96L280.273 314.976L294.273 313.3C301.973 312.378 319.298 310.686 332.773 309.541C346.248 308.396 363.798 306.737 371.773 305.855C380.001 304.945 395.357 304.212 407.273 304.16C425.74 304.081 429.344 304.335 437.15 306.268C472.213 314.952 494.328 340.248 498.836 376.828C503.306 413.097 488.199 444.124 457.712 461.291C442.321 469.957 415.68 475.678 366.273 480.927C353.073 482.329 334.398 484.369 324.773 485.46C304.302 487.78 297.888 487.951 297.272 486.194ZM691.879 765.562C694.159 760.503 712.7 713.409 721.403 690.57C724.415 682.664 726.743 675.298 726.577 674.201C726.35 672.713 723.864 671.229 716.773 668.353C697.411 660.498 628.55 634.444 627.151 634.444C625.389 634.444 624.571 636.314 610.087 673.444C593.591 715.736 587.773 731.253 587.773 732.966C587.773 734.822 593.612 737.44 617.675 746.372C627.904 750.17 643.473 756.062 652.273 759.467C679.442 769.979 687.055 772.456 688.502 771.254C689.214 770.663 690.734 768.102 691.879 765.562ZM732.896 604.194C740.118 589.757 759.633 551.169 776.263 518.444C839.567 393.871 849.216 374.13 858.657 349.881C863.567 337.266 870.594 319.294 874.272 309.944C885.392 281.671 892.773 261.486 892.773 259.352C892.773 257.904 891.429 256.737 888.023 255.229C884.4 253.625 804.552 223.159 788.437 217.232C783.693 215.487 785.668 211.275 758.567 280.944C750.865 300.744 742.336 322.726 739.613 329.794C736.509 337.852 722.54 385.953 702.15 458.794C658.824 613.568 660.525 607.354 661.09 608.827C661.51 609.921 690.977 621.745 709.773 628.362C719.803 631.892 718.208 633.559 732.896 604.194Z"/>
 </g>
</svg>
