#define _width 8
#define _height 8
static char _bits[] = {
 0xa0,0x40,0x50,0x80,0x04,0x09,0x02,0x0a };
