<?xml version="1.0" standalone="no"?>
<!DOCTYPE svg PUBLIC "-//W3C//DTD SVG 20010904//EN" "http://www.w3.org/TR/2001/REC-SVG-20010904/DTD/svg10.dtd">
<!-- Created using Karbon, part of Calligra: http://www.calligra.org/karbon -->
<svg xmlns="http://www.w3.org/2000/svg" xmlns:xlink="http://www.w3.org/1999/xlink" width="409.599pt" height="409.6pt">
<defs/>
<g id="layer0">
  <ellipse id="Shape" transform="translate(28.7008, 25.8662)" rx="182.60720000000pt" ry="183.42240000000pt" cx="182.60720000000pt" cy="183.42240000000pt" fill="#302d3e" stroke="#003bc3" stroke-width="0.00000000000" stroke-linecap="butt" stroke-linejoin="miter" stroke-miterlimit="0.00000000000"/>
  <g id="group0" transform="" fill="none"/>
  <path id="shape0" transform="translate(27, 124.009)" fill="#88a5a9" d="M347.585 133.028C347.585 198.781 294.519 252.083 229.058 252.083C163.595 252.083 110.531 198.781 110.531 133.028L42.144 0C15.603 37.558 0 83.462 0 133.028C0 260.097 102.552 363.107 229.058 363.107C355.563 363.107 458.116 260.097 458.116 133.028"/>
  <path id="shape1" transform="translate(167.765, 138.974)" fill="#88a5a9" d="M0 0L95.438 18.777L20.617 81.183Z"/>
  <path id="shape2" transform="translate(177.337, 157.751)" fill="#abd7bc" d="M85.866 0L11.045 62.406L0 18.918Z"/>
  <path id="shape3" transform="translate(237.283, 152.696)" fill="#88a5a9" d="M0 0L25.913 5.099L5.599 22.043Z"/>
  <path id="shape4" transform="translate(43.378, 65.317)" fill="#88a5a9" d="M0 107.586L43.578 0L81.402 109.76Z"/>
  <path id="shape5" transform="translate(138.784, 78.041)" fill="#88a5a9" d="M0 65.626L42.633 0L53.637 77.579Z"/>
  <ellipse id="shape6" transform="translate(43.378, 111.106)" rx="65.85680000000pt" ry="66.15120000000pt" cx="65.85680000000pt" cy="66.15120000000pt" fill="#88a5a9"/>
  <ellipse id="shape7" transform="translate(254.013, 266.011)" rx="16.22880000000pt" ry="16.30160000000pt" cx="16.22880000000pt" cy="16.30160000000pt" fill="#abd7bc"/>
  <path id="shape8" transform="translate(171.366, 180.234)" fill="#88a5a9" d="M7.543 0L59.868 45.244L0 79.792Z"/>
  <path id="shape9" transform="translate(126.847, 224.36)" fill="#88a5a9" d="M27.114 0C10.445 15.396 0 37.486 0 62.027C0 108.554 37.549 146.271 83.869 146.271C130.19 146.271 167.738 108.554 167.738 62.027L127.193 62.027C127.193 86.063 107.797 105.545 83.869 105.545C59.941 105.545 40.545 86.064 40.545 62.027C40.545 49.54 45.781 38.281 54.168 30.344"/>
  <path id="shape10" transform="translate(180.521, 192.779)" fill="#88a5a9" d="M174.981 0C187.316 18.921 194.495 41.536 194.495 65.841C194.495 132.312 140.849 186.195 74.674 186.195C46.434 186.195 20.482 176.378 0 159.961C21.397 192.787 58.328 214.477 100.309 214.477C166.485 214.477 220.129 160.591 220.129 94.121C220.128 56.016 202.496 22.053 174.981 0Z"/>
  <path id="shape11" transform="translate(73.009, 76.433)" fill="#88a5a9" d="M325.32 0C352.09 37.564 367.85 83.582 367.85 133.303C367.85 259.929 265.657 362.581 139.587 362.581C87.009 362.581 38.592 344.714 0 314.708C41.406 372.813 109.161 410.684 185.728 410.684C311.796 410.684 413.99 308.033 413.99 181.406C413.99 107.592 379.256 41.936 325.32 0Z"/>
  <path id="shape12" transform="translate(131.354, 76.25)" fill="#88a5a9" d="M199.44 0C241.254 36.042 267.75 89.506 267.75 149.193C267.75 257.727 180.157 345.711 72.104 345.711C46.641 345.711 22.313 340.819 0 331.928C34.224 361.426 78.704 379.255 127.333 379.255C235.386 379.255 322.979 291.27 322.979 182.737C322.978 99.782 271.805 28.835 199.44 0Z"/>
 </g>
</svg>
